<?xml version="1.0" encoding="utf-8"?>
<!-- Uploaded to: SVG Repo, www.svgrepo.com, Generator: SVG Repo Mixer Tools -->
<svg fill="#fff" width="800px" height="800px" viewBox="0 0 32 32" version="1.1" xmlns="http://www.w3.org/2000/svg">
<title>diploma</title>
<path d="M29.934 19.084l-2.4-1.416 2.33-1.405c0.219-0.134 0.363-0.371 0.363-0.643 0-0.083-0.013-0.162-0.038-0.237l0.002 0.005c-0.090-0.303-0.366-0.52-0.693-0.52-0.029 0-0.058 0.002-0.086 0.005l0.003-0-7.231 0.606c2.131-1.971 4.313-3.901 6.602-5.736 0.023-0.018 0.043-0.036 0.063-0.055l-0 0c0.497-0.498 0.805-1.185 0.805-1.944s-0.308-1.448-0.807-1.946l-3.418-3.417c-0.494-0.498-1.179-0.807-1.936-0.807-0.003 0-0.005 0-0.007 0h-0.002c-0.788 0.003-1.497 0.335-1.999 0.866l-0.001 0.001c-5.676 7.075-11.903 13.301-18.744 18.793l-0.235 0.182c-0.497 0.498-0.803 1.185-0.803 1.944s0.307 1.446 0.804 1.944l3.419 3.418c0.495 0.497 1.179 0.805 1.936 0.805 0.003 0 0.006 0 0.009 0h-0c0.788-0.003 1.498-0.336 2-0.868l0.001-0.001c1.772-2.226 3.671-4.378 5.626-6.492l-0.688 7.438c-0.002 0.021-0.003 0.044-0.003 0.069 0 0.332 0.216 0.613 0.514 0.711l0.005 0.002c0.068 0.024 0.147 0.037 0.229 0.037 0.001 0 0.001 0 0.002 0h-0c0 0 0.001 0 0.001 0 0.273 0 0.512-0.147 0.643-0.366l0.002-0.003 1.417-2.398 1.405 2.33c0.131 0.22 0.367 0.365 0.638 0.365 0.084 0 0.165-0.014 0.241-0.040l-0.005 0.002c0.304-0.1 0.52-0.381 0.52-0.713 0-0.022-0.001-0.044-0.003-0.065l0 0.003-0.837-9.978 9.912 0.917c0.023 0.002 0.045 0.004 0.068 0.004 0.414-0.001 0.75-0.336 0.75-0.75 0-0.274-0.146-0.513-0.365-0.644l-0.003-0.002zM22.6 3.441c0.224-0.226 0.535-0.366 0.878-0.366 0.002 0 0.003 0 0.005 0h0.002c0.001 0 0.002 0 0.004 0 0.344 0 0.655 0.14 0.879 0.366l3.418 3.418c0.226 0.226 0.367 0.539 0.367 0.884 0 0.333-0.13 0.635-0.342 0.859l0.001-0.001c-2.413 1.938-4.709 3.978-6.948 6.062l-4.299-4.292c2.082-2.238 4.116-4.53 6.036-6.93zM15.532 11.463l4.241 4.232q-2.163 2.063-4.202 4.207l-4.238-4.246q2.146-2.040 4.198-4.192zM18.747 18.731l0.003-0.003-0 0.003zM8.75 27.662c-0.226 0.226-0.539 0.366-0.884 0.366s-0.658-0.14-0.884-0.366v0l-3.419-3.416c-0.23-0.226-0.373-0.541-0.373-0.889 0-0.316 0.117-0.604 0.31-0.823l-0.001 0.001c2.316-1.84 4.55-3.816 6.742-5.849l4.298 4.305c-2.019 2.176-3.976 4.388-5.79 6.671zM18.25 25.805c-0.133-0.219-0.371-0.363-0.642-0.363-0 0-0 0-0 0h-0.004c-0.272 0.001-0.51 0.148-0.64 0.366l-0.002 0.003-0.355 0.6 0.556-6.009c0.301-0.313 0.589-0.635 0.894-0.945l0.589 7.005zM25.689 18.32l0.6 0.355-6.816-0.632c0.315-0.31 0.647-0.607 0.966-0.914l5.903-0.494-0.658 0.396c-0.219 0.133-0.363 0.371-0.363 0.642 0 0.274 0.147 0.513 0.366 0.644l0.003 0.002z"></path>
</svg>