<svg xmlns="http://www.w3.org/2000/svg" width="800" height="800" fill="none" viewBox="0 0 32 32"><path fill="#8CC84B" d="M17.172 2.299a2.452 2.452 0 0 0-2.345 0L4.152 8.189C3.46 8.553 2.992 9.297 3 10.07v11.864c-.005.787.486 1.538 1.197 1.897 1.022.544 2.015 1.143 3.055 1.65 1.203.59 2.706.721 3.923.105.988-.51 1.427-1.646 1.425-2.689.008-3.915.002-7.83.003-11.746.024-.174-.107-.36-.297-.356-.454-.007-.91-.004-1.364-.001-.172-.017-.34.126-.327.299-.006 3.89.001 7.781-.004 11.672a1.318 1.318 0 0 1-.872 1.237c-1.198.42-4.617-1.8-4.617-1.8a.337.337 0 0 1-.193-.33V10.13a.362.362 0 0 1 .225-.365c3.546-1.952 7.09-3.908 10.637-5.862a.384.384 0 0 1 .418.001c3.546 1.953 7.091 3.908 10.638 5.86a.366.366 0 0 1 .224.366c0 3.913.001 7.828-.001 11.741a.337.337 0 0 1-.19.334c-3.514 1.941-7.067 3.82-10.549 5.818-.151.087-.323.186-.494.09-.915-.507-1.82-1.033-2.732-1.544-.1-.062-.226-.089-.33-.02-.408.216-.793.39-1.263.577-.66.261-.554.368.04.714 1.068.604 2.137 1.206 3.204 1.81.703.439 1.646.47 2.372.065 3.558-1.961 7.116-3.925 10.675-5.886.708-.361 1.202-1.109 1.197-1.896V10.069c.007-.756-.442-1.487-1.114-1.856-3.57-1.974-7.142-3.942-10.713-5.914Z"/><path fill="#8CC84B" d="M22.542 11.206c-1.397-.747-3.058-.787-4.61-.69-1.122.112-2.301.421-3.118 1.225-.838.808-1.02 2.113-.622 3.168.285.745 1.003 1.23 1.745 1.486.957.338 1.96.442 2.966.546.916.096 1.833.19 2.713.463.36.12.78.302.89.693.101.464-.01 1.003-.387 1.325-1.195.946-4.521.801-5.702.056-.478-.317-.684-.879-.768-1.414-.009-.167-.143-.32-.324-.307a68.556 68.556 0 0 0-1.36 0c-.159-.014-.323.099-.332.26-.093 2.452 2.158 3.52 4.27 3.756 1.208.115 2.441.108 3.63-.15.893-.204 1.789-.579 2.404-1.267.758-.836.907-2.081.567-3.123-.26-.777-1.003-1.276-1.762-1.532-1.033-.354-2.258-.545-3.193-.634-1.36-.13-2.976-.076-3.361-.97-.153-.468-.023-1.049.407-1.337 1.138-.771 3.453-.669 4.632-.092.54.27.854.827.983 1.389.024.165.135.337.326.33.45.008.901.002 1.351.002.155.011.325-.076.355-.234-.02-1.174-.619-2.376-1.7-2.949Z"/></svg>