<?xml version="1.0" encoding="UTF-8"?>
<!DOCTYPE svg PUBLIC "-//W3C//DTD SVG 1.1//EN" "http://www.w3.org/Graphics/SVG/1.1/DTD/svg11.dtd">
<svg xmlns="http://www.w3.org/2000/svg" version="1.1" width="150px" height="150px" style="shape-rendering:geometricPrecision; text-rendering:geometricPrecision; image-rendering:optimizeQuality; fill-rule:evenodd; clip-rule:evenodd" xmlns:xlink="http://www.w3.org/1999/xlink">
<g><path style="opacity:0.02" fill="#e33674" d="M 51.5,-0.5 C 52.8333,-0.5 54.1667,-0.5 55.5,-0.5C 54.5,0.166667 53.5,0.833333 52.5,1.5C 51.5,1.5 50.5,1.5 49.5,1.5C 50.1667,0.833333 50.8333,0.166667 51.5,-0.5 Z"/></g>
<g><path style="opacity:0.996" fill="#e93554" d="M 61.5,0.5 C 61.5,0.166667 61.5,-0.166667 61.5,-0.5C 67.1667,-0.5 72.8333,-0.5 78.5,-0.5C 77.469,0.248534 76.3024,0.915201 75,1.5C 65.0713,15.0666 54.5713,27.8999 43.5,40C 45.0581,40.21 46.3915,40.71 47.5,41.5C 39.6981,42.6373 34.6981,46.9706 32.5,54.5C 31.6698,64.3249 31.1698,74.3249 31,84.5C 30.6667,77.1667 30.3333,69.8333 30,62.5C 29.6667,63.8333 29.3333,65.1667 29,66.5C 23.2896,72.8897 17.4562,79.3897 11.5,86C 11.8333,86.3333 12.1667,86.6667 12.5,87C 9.27611,89.1749 7.10944,91.6749 6,94.5C 4.81732,93.269 3.65066,93.269 2.5,94.5C 3.65268,95.6868 3.65268,96.6868 2.5,97.5C 2.5,96.8333 2.16667,96.5 1.5,96.5C 1.59047,93.8478 0.923808,91.5145 -0.5,89.5C -0.5,89.1667 -0.5,88.8333 -0.5,88.5C 0.833333,88.1667 0.833333,87.8333 -0.5,87.5C -0.5,86.5 -0.5,85.5 -0.5,84.5C 1.5121,81.9228 3.0121,78.9228 4,75.5C 5.92521,74.1196 7.75854,72.6196 9.5,71C 9.16667,70.6667 8.83333,70.3333 8.5,70C 16.6509,60.5051 24.4843,50.6718 32,40.5C 32.6667,41.8333 33.3333,41.8333 34,40.5C 34.6172,39.5509 34.4506,38.7175 33.5,38C 35.3783,36.4571 36.8783,34.6238 38,32.5C 39.1475,33.4581 40.1475,33.1247 41,31.5C 41.5611,29.2746 42.5611,27.2746 44,25.5C 44.6667,24.1667 45.3333,24.1667 46,25.5C 46.2838,21.8804 48.1171,19.3804 51.5,18C 51.1667,17.6667 50.8333,17.3333 50.5,17C 51.5,16.6667 52.5,16.3333 53.5,16C 53.5,15 53.5,14 53.5,13C 56.3777,10.2913 59.0443,7.45799 61.5,4.5C 62.782,3.04156 62.782,1.70823 61.5,0.5 Z"/></g>
<g><path style="opacity:0.02" fill="#dd397e" d="M 93.5,-0.5 C 94.8333,-0.5 96.1667,-0.5 97.5,-0.5C 98.1667,0.166667 98.8333,0.833333 99.5,1.5C 98.5,1.5 97.5,1.5 96.5,1.5C 95.5,0.833333 94.5,0.166667 93.5,-0.5 Z"/></g>
<g><path style="opacity:0.997" fill="#ec3a4e" d="M 61.5,0.5 C 62.782,1.70823 62.782,3.04156 61.5,4.5C 59.0443,7.45799 56.3777,10.2913 53.5,13C 53.5,14 53.5,15 53.5,16C 52.5,16.3333 51.5,16.6667 50.5,17C 50.8333,17.3333 51.1667,17.6667 51.5,18C 48.1171,19.3804 46.2838,21.8804 46,25.5C 45.3333,24.1667 44.6667,24.1667 44,25.5C 42.5611,27.2746 41.5611,29.2746 41,31.5C 40.1475,33.1247 39.1475,33.4581 38,32.5C 36.8783,34.6238 35.3783,36.4571 33.5,38C 34.4506,38.7175 34.6172,39.5509 34,40.5C 33.3333,41.8333 32.6667,41.8333 32,40.5C 24.4843,50.6718 16.6509,60.5051 8.5,70C 8.83333,70.3333 9.16667,70.6667 9.5,71C 7.75854,72.6196 5.92521,74.1196 4,75.5C 3.0121,78.9228 1.5121,81.9228 -0.5,84.5C -0.5,76.8333 -0.5,69.1667 -0.5,61.5C 0.657188,58.7273 1.32385,55.7273 1.5,52.5C 2.40397,51.791 2.73731,50.791 2.5,49.5C 2.83333,49.5 3.16667,49.5 3.5,49.5C 3.16667,52.1667 2.83333,54.8333 2.5,57.5C 5.04386,56.5321 7.21053,54.8655 9,52.5C 19.6139,37.9532 30.6139,24.2866 42,11.5C 42.6667,10.1667 42.6667,8.83333 42,7.5C 41.6667,8.16667 41.3333,8.83333 41,9.5C 40.3292,8.74756 39.4959,8.41423 38.5,8.5C 38.5,8.16667 38.5,7.83333 38.5,7.5C 39.4916,7.67158 40.1583,7.33825 40.5,6.5C 41.4916,6.67158 42.1583,6.33825 42.5,5.5C 44.403,5.20414 46.0697,4.53747 47.5,3.5C 48.4916,3.67158 49.1583,3.33825 49.5,2.5C 50.791,2.73731 51.791,2.40397 52.5,1.5C 55.4824,1.03714 58.4824,0.703809 61.5,0.5 Z"/></g>
<g><path style="opacity:0.998" fill="#e5305e" d="M 78.5,-0.5 C 81.5,-0.5 84.5,-0.5 87.5,-0.5C 90.2727,0.657188 93.2727,1.32385 96.5,1.5C 97.209,2.40397 98.209,2.73731 99.5,2.5C 99.8417,3.33825 100.508,3.67158 101.5,3.5C 101.5,3.83333 101.5,4.16667 101.5,4.5C 98.0491,3.40121 95.5491,3.40121 94,4.5C 85.8977,16.2662 77.0644,27.4329 67.5,38C 74.346,38.1717 81.0126,38.6717 87.5,39.5C 74.0533,39.0892 60.7199,39.7559 47.5,41.5C 46.3915,40.71 45.0581,40.21 43.5,40C 54.5713,27.8999 65.0713,15.0666 75,1.5C 76.3024,0.915201 77.469,0.248534 78.5,-0.5 Z"/></g>
<g><path style="opacity:0.004" fill="#df2980" d="M 99.5,2.5 C 99.5,2.16667 99.5,1.83333 99.5,1.5C 101.308,1.49136 102.975,1.99136 104.5,3C 103.552,3.48278 102.552,3.64945 101.5,3.5C 101.158,2.66175 100.492,2.32842 99.5,2.5 Z"/></g>
<g><path style="opacity:0.02" fill="#e32d77" d="M 49.5,1.5 C 49.5,1.83333 49.5,2.16667 49.5,2.5C 48.5084,2.32842 47.8417,2.66175 47.5,3.5C 46.448,3.64945 45.448,3.48278 44.5,3C 46.0249,1.99136 47.6916,1.49136 49.5,1.5 Z"/></g>
<g><path style="opacity:0.004" fill="#d92f89" d="M 106.5,5.5 C 108.915,4.35159 110.915,5.01825 112.5,7.5C 111.833,7.5 111.167,7.5 110.5,7.5C 110.158,6.66175 109.492,6.32842 108.5,6.5C 108.158,5.66175 107.492,5.32842 106.5,5.5 Z"/></g>
<g><path style="opacity:0.02" fill="#e13079" d="M 42.5,5.5 C 41.5084,5.32842 40.8417,5.66175 40.5,6.5C 39.5084,6.32842 38.8417,6.66175 38.5,7.5C 37.8333,7.5 37.1667,7.5 36.5,7.5C 38.0852,5.01825 40.0852,4.35159 42.5,5.5 Z"/></g>
<g><path style="opacity:0.004" fill="#df2980" d="M 36.5,7.5 C 36.5,7.83333 36.5,8.16667 36.5,8.5C 35.8333,8.5 35.5,8.83333 35.5,9.5C 33.2071,8.69871 33.5404,8.03204 36.5,7.5 Z"/></g>
<g><path style="opacity:0.004" fill="#df2980" d="M 112.5,8.5 C 112.5,8.16667 112.5,7.83333 112.5,7.5C 115.46,8.03204 115.793,8.69871 113.5,9.5C 113.5,8.83333 113.167,8.5 112.5,8.5 Z"/></g>
<g><path style="opacity:0.996" fill="#e12a6a" d="M 101.5,4.5 C 103.216,4.62867 104.883,4.962 106.5,5.5C 106.842,6.33825 107.508,6.67158 108.5,6.5C 108.842,7.33825 109.508,7.67158 110.5,7.5C 110.5,7.83333 110.5,8.16667 110.5,8.5C 110.574,10.4109 111.574,11.5776 113.5,12C 112.069,12.4652 110.903,13.2986 110,14.5C 107.805,17.2136 105.971,20.2136 104.5,23.5C 100.427,26.7366 96.9273,30.4032 94,34.5C 93.5065,36.1341 93.3398,37.8008 93.5,39.5C 96.0412,39.1486 97.7079,39.4819 98.5,40.5C 94.7852,40.577 91.1185,40.2436 87.5,39.5C 81.0126,38.6717 74.346,38.1717 67.5,38C 77.0644,27.4329 85.8977,16.2662 94,4.5C 95.5491,3.40121 98.0491,3.40121 101.5,4.5 Z"/></g>
<g><path style="opacity:1" fill="#ee3e49" d="M 3.5,49.5 C 3.5,48.8333 3.5,48.1667 3.5,47.5C 4.53747,46.0697 5.20414,44.403 5.5,42.5C 6.33825,42.1583 6.67158,41.4916 6.5,40.5C 7.33825,40.1583 7.67158,39.4916 7.5,38.5C 8.33825,38.1583 8.67158,37.4916 8.5,36.5C 9.16667,36.5 9.5,36.1667 9.5,35.5C 10.8897,34.1007 11.8897,32.4341 12.5,30.5C 13.1667,30.5 13.5,30.1667 13.5,29.5C 14.4884,28.205 15.4884,26.8717 16.5,25.5C 17.1667,25.5 17.5,25.1667 17.5,24.5C 18.1667,24.5 18.5,24.1667 18.5,23.5C 20.5,22.1667 22.1667,20.5 23.5,18.5C 24.1667,18.5 24.5,18.1667 24.5,17.5C 25.1667,17.5 25.5,17.1667 25.5,16.5C 26.8717,15.4884 28.205,14.4884 29.5,13.5C 30.1667,13.5 30.5,13.1667 30.5,12.5C 32.4341,11.8897 34.1007,10.8897 35.5,9.5C 36.1667,9.5 36.5,9.16667 36.5,8.5C 37.1667,8.5 37.8333,8.5 38.5,8.5C 39.4959,8.41423 40.3292,8.74756 41,9.5C 41.3333,8.83333 41.6667,8.16667 42,7.5C 42.6667,8.83333 42.6667,10.1667 42,11.5C 30.6139,24.2866 19.6139,37.9532 9,52.5C 7.21053,54.8655 5.04386,56.5321 2.5,57.5C 2.83333,54.8333 3.16667,52.1667 3.5,49.5 Z"/></g>
<g><path style="opacity:0.004" fill="#df2980" d="M 30.5,12.5 C 29.8333,12.5 29.5,12.8333 29.5,13.5C 27.0248,13.2533 27.0248,12.5866 29.5,11.5C 30.1067,11.6236 30.44,11.9569 30.5,12.5 Z"/></g>
<g><path style="opacity:0.998" fill="#dd2574" d="M 110.5,8.5 C 111.167,8.5 111.833,8.5 112.5,8.5C 113.167,8.5 113.5,8.83333 113.5,9.5C 114.899,10.8897 116.566,11.8897 118.5,12.5C 118.5,13.1667 118.833,13.5 119.5,13.5C 120.795,14.4884 122.128,15.4884 123.5,16.5C 123.5,17.1667 123.833,17.5 124.5,17.5C 124.5,17.8333 124.5,18.1667 124.5,18.5C 118.346,25.8209 112.013,32.9875 105.5,40C 106.328,40.9147 107.328,41.5814 108.5,42C 108.272,42.3988 107.938,42.5654 107.5,42.5C 104.311,42.1417 101.311,41.475 98.5,40.5C 97.7079,39.4819 96.0412,39.1486 93.5,39.5C 93.3398,37.8008 93.5065,36.1341 94,34.5C 96.9273,30.4032 100.427,26.7366 104.5,23.5C 105.971,20.2136 107.805,17.2136 110,14.5C 110.903,13.2986 112.069,12.4652 113.5,12C 111.574,11.5776 110.574,10.4109 110.5,8.5 Z"/></g>
<g><path style="opacity:0.012" fill="#d43b8d" d="M 118.5,12.5 C 119.497,11.2875 120.497,11.4542 121.5,13C 120.906,13.4643 120.239,13.631 119.5,13.5C 118.833,13.5 118.5,13.1667 118.5,12.5 Z"/></g>
<g><path style="opacity:0.004" fill="#d72f8d" d="M 25.5,16.5 C 24.8333,16.5 24.5,16.8333 24.5,17.5C 23.8333,17.5 23.5,17.8333 23.5,18.5C 21.4076,17.7145 21.7409,16.7145 24.5,15.5C 25.1067,15.6236 25.44,15.9569 25.5,16.5 Z"/></g>
<g><path style="opacity:0.012" fill="#c53fa4" d="M 123.5,16.5 C 125.07,15.4407 126.403,15.9407 127.5,18C 126.906,18.4643 126.239,18.631 125.5,18.5C 125.5,17.8333 125.167,17.5 124.5,17.5C 123.833,17.5 123.5,17.1667 123.5,16.5 Z"/></g>
<g><path style="opacity:0.012" fill="#c93d9f" d="M 132.5,25.5 C 132.5,24.8333 132.167,24.5 131.5,24.5C 131.5,23.8333 131.167,23.5 130.5,23.5C 131.286,21.4076 132.286,21.7409 133.5,24.5C 133.376,25.1067 133.043,25.44 132.5,25.5 Z"/></g>
<g><path style="opacity:0.02" fill="#df2f7e" d="M 18.5,23.5 C 17.8333,23.5 17.5,23.8333 17.5,24.5C 16.8333,24.5 16.5,24.8333 16.5,25.5C 15.4407,23.9301 15.9407,22.5968 18,21.5C 18.4643,22.0944 18.631,22.7611 18.5,23.5 Z"/></g>
<g><path style="opacity:0.004" fill="#df2980" d="M 13.5,29.5 C 12.8333,29.5 12.5,29.8333 12.5,30.5C 11.2875,29.5029 11.4542,28.5029 13,27.5C 13.4643,28.0944 13.631,28.7611 13.5,29.5 Z"/></g>
<g><path style="opacity:0.999" fill="#cc3b98" d="M 131.5,25.5 C 131.833,25.5 132.167,25.5 132.5,25.5C 133.512,26.8717 134.512,28.205 135.5,29.5C 135.5,30.1667 135.833,30.5 136.5,30.5C 136.557,31.609 136.89,32.609 137.5,33.5C 135.097,33.393 133.264,34.393 132,36.5C 127.69,42.3106 123.19,47.9773 118.5,53.5C 117.501,63.8119 117.168,74.1452 117.5,84.5C 117.167,84.5 116.833,84.5 116.5,84.5C 116.667,73.8281 116.5,63.1615 116,52.5C 115.209,51.255 114.709,49.9217 114.5,48.5C 115.598,47.603 115.598,46.7697 114.5,46C 120.031,38.9768 125.698,32.1435 131.5,25.5 Z"/></g>
<g><path style="opacity:0.004" fill="#da3387" d="M 136.5,30.5 C 135.833,30.5 135.5,30.1667 135.5,29.5C 135.747,27.0248 136.413,27.0248 137.5,29.5C 137.376,30.1067 137.043,30.44 136.5,30.5 Z"/></g>
<g><path style="opacity:1" fill="#d52884" d="M 124.5,18.5 C 124.833,18.5 125.167,18.5 125.5,18.5C 126.833,20.5 128.5,22.1667 130.5,23.5C 131.167,23.5 131.5,23.8333 131.5,24.5C 131.5,24.8333 131.5,25.1667 131.5,25.5C 125.698,32.1435 120.031,38.9768 114.5,46C 115.598,46.7697 115.598,47.603 114.5,48.5C 112.142,46.4707 109.808,44.4707 107.5,42.5C 107.938,42.5654 108.272,42.3988 108.5,42C 107.328,41.5814 106.328,40.9147 105.5,40C 112.013,32.9875 118.346,25.8209 124.5,18.5 Z"/></g>
<g><path style="opacity:0.004" fill="#df2980" d="M 9.5,35.5 C 8.83333,35.5 8.5,35.8333 8.5,36.5C 8.16667,36.5 7.83333,36.5 7.5,36.5C 8.03204,33.5404 8.69871,33.2071 9.5,35.5 Z"/></g>
<g><path style="opacity:0.004" fill="#c736a9" d="M 141.5,36.5 C 141.167,36.5 140.833,36.5 140.5,36.5C 140.5,35.8333 140.167,35.5 139.5,35.5C 140.301,33.2071 140.968,33.5404 141.5,36.5 Z"/></g>
<g><path style="opacity:0.004" fill="#d82e8b" d="M 7.5,36.5 C 7.5,37.1667 7.5,37.8333 7.5,38.5C 6.66175,38.8417 6.32842,39.5084 6.5,40.5C 5.66175,40.8417 5.32842,41.5084 5.5,42.5C 4.35159,40.0852 5.01825,38.0852 7.5,36.5 Z"/></g>
<g><path style="opacity:0.004" fill="#d82e8b" d="M 141.5,36.5 C 143.982,38.0852 144.648,40.0852 143.5,42.5C 143.672,41.5084 143.338,40.8417 142.5,40.5C 142.672,39.5084 142.338,38.8417 141.5,38.5C 141.5,37.8333 141.5,37.1667 141.5,36.5 Z"/></g>
<g><path style="opacity:1" fill="#f9f6f6" d="M 87.5,39.5 C 91.1185,40.2436 94.7852,40.577 98.5,40.5C 101.311,41.475 104.311,42.1417 107.5,42.5C 109.808,44.4707 112.142,46.4707 114.5,48.5C 114.709,49.9217 115.209,51.255 116,52.5C 116.5,63.1615 116.667,73.8281 116.5,84.5C 113.902,94.7489 107.235,99.7489 96.5,99.5C 93.8127,99.3359 91.146,99.5026 88.5,100C 84.6667,105.833 80.8333,111.667 77,117.5C 75.6439,118.38 74.1439,118.714 72.5,118.5C 71.9744,116.77 70.9744,115.436 69.5,114.5C 68.2411,110.975 66.2411,107.975 63.5,105.5C 62.8331,101.459 60.4997,99.4592 56.5,99.5C 53.4824,99.2962 50.4824,98.9629 47.5,98.5C 42.1691,98.0015 37.8358,95.6682 34.5,91.5C 34.1077,89.8211 33.6077,88.1545 33,86.5C 32.5002,75.8385 32.3335,65.1719 32.5,54.5C 34.6981,46.9706 39.6981,42.6373 47.5,41.5C 60.7199,39.7559 74.0533,39.0892 87.5,39.5 Z"/></g>
<g><path style="opacity:1" fill="#bf35a7" d="M 137.5,33.5 C 138.167,34.1667 138.833,34.8333 139.5,35.5C 140.167,35.5 140.5,35.8333 140.5,36.5C 140.328,37.4916 140.662,38.1583 141.5,38.5C 141.328,39.4916 141.662,40.1583 142.5,40.5C 142.328,41.4916 142.662,42.1583 143.5,42.5C 143.5,42.8333 143.5,43.1667 143.5,43.5C 140.805,43.933 138.638,45.2663 137,47.5C 131.716,55.1189 126.049,62.4522 120,69.5C 118.84,74.4342 118.34,79.4342 118.5,84.5C 118.167,84.5 117.833,84.5 117.5,84.5C 117.168,74.1452 117.501,63.8119 118.5,53.5C 123.19,47.9773 127.69,42.3106 132,36.5C 133.264,34.393 135.097,33.393 137.5,33.5 Z"/></g>
<g><path style="opacity:0.004" fill="#df297f" d="M 3.5,47.5 C 2.66175,47.8417 2.32842,48.5084 2.5,49.5C 2.16667,49.5 1.83333,49.5 1.5,49.5C 1.49136,47.6916 1.99136,46.0249 3,44.5C 3.48278,45.448 3.64945,46.448 3.5,47.5 Z"/></g>
<g><path style="opacity:0.004" fill="#d1329d" d="M 147.5,49.5 C 147.167,49.5 146.833,49.5 146.5,49.5C 146.672,48.5084 146.338,47.8417 145.5,47.5C 145.351,46.448 145.517,45.448 146,44.5C 147.009,46.0249 147.509,47.6916 147.5,49.5 Z"/></g>
<g><path style="opacity:1" fill="#b53eb6" d="M 143.5,43.5 C 143.989,44.9952 144.655,46.3285 145.5,47.5C 145.5,48.1667 145.5,48.8333 145.5,49.5C 135.639,61.2529 126.639,72.9196 118.5,84.5C 118.34,79.4342 118.84,74.4342 120,69.5C 126.049,62.4522 131.716,55.1189 137,47.5C 138.638,45.2663 140.805,43.933 143.5,43.5 Z"/></g>
<g><path style="opacity:0.02" fill="#e5346f" d="M 1.5,49.5 C 1.5,50.5 1.5,51.5 1.5,52.5C 0.833333,53.5 0.166667,54.5 -0.5,55.5C -0.5,54.1667 -0.5,52.8333 -0.5,51.5C 0.166667,50.8333 0.833333,50.1667 1.5,49.5 Z"/></g>
<g><path style="opacity:0.012" fill="#c243ab" d="M 147.5,49.5 C 148.167,50.1667 148.833,50.8333 149.5,51.5C 149.5,52.8333 149.5,54.1667 149.5,55.5C 148.833,54.5 148.167,53.5 147.5,52.5C 147.5,51.5 147.5,50.5 147.5,49.5 Z"/></g>
<g><path style="opacity:1" fill="#df2467" d="M 89.5,61.5 C 83.9696,62.2754 78.3029,63.1088 72.5,64C 76.2797,64.918 79.9464,65.7513 83.5,66.5C 73.8276,66.6665 64.1609,66.4998 54.5,66C 53.1667,64.6667 53.1667,63.3333 54.5,62C 66.1619,61.5001 77.8286,61.3335 89.5,61.5 Z"/></g>
<g><path style="opacity:1" fill="#da2a7a" d="M 89.5,61.5 C 91.1992,61.3398 92.8659,61.5065 94.5,62C 95.8333,63.3333 95.8333,64.6667 94.5,66C 90.8484,66.4986 87.1817,66.6653 83.5,66.5C 79.9464,65.7513 76.2797,64.918 72.5,64C 78.3029,63.1088 83.9696,62.2754 89.5,61.5 Z"/></g>
<g><path style="opacity:0.998" fill="#e63762" d="M 32.5,54.5 C 32.3335,65.1719 32.5002,75.8385 33,86.5C 33.6077,88.1545 34.1077,89.8211 34.5,91.5C 32.8639,90.2511 31.6972,88.5844 31,86.5C 30.2496,87.1258 29.4162,87.6258 28.5,88C 23.2895,93.5417 18.4562,99.3751 14,105.5C 12.5462,108.071 11.3795,110.738 10.5,113.5C 10.1667,113.5 9.83333,113.5 9.5,113.5C 9.5,112.833 9.16667,112.5 8.5,112.5C 8.67158,111.508 8.33825,110.842 7.5,110.5C 7.67158,109.508 7.33825,108.842 6.5,108.5C 6.67158,107.508 6.33825,106.842 5.5,106.5C 5.67158,105.508 5.33825,104.842 4.5,104.5C 4.73731,103.209 4.40397,102.209 3.5,101.5C 3.67158,100.508 3.33825,99.8417 2.5,99.5C 2.5,98.8333 2.5,98.1667 2.5,97.5C 3.65268,96.6868 3.65268,95.6868 2.5,94.5C 3.65066,93.269 4.81732,93.269 6,94.5C 7.10944,91.6749 9.27611,89.1749 12.5,87C 12.1667,86.6667 11.8333,86.3333 11.5,86C 17.4562,79.3897 23.2896,72.8897 29,66.5C 29.3333,65.1667 29.6667,63.8333 30,62.5C 30.3333,69.8333 30.6667,77.1667 31,84.5C 31.1698,74.3249 31.6698,64.3249 32.5,54.5 Z"/></g>
<g><path style="opacity:1" fill="#de236b" d="M 54.5,73.5 C 61.8409,73.3337 69.1742,73.5003 76.5,74C 77.8333,75.3333 77.8333,76.6667 76.5,78C 69.1667,78.6667 61.8333,78.6667 54.5,78C 53.2721,76.5098 53.2721,75.0098 54.5,73.5 Z"/></g>
<g><path style="opacity:1" fill="#a748cd" d="M 148.5,62.5 C 147.955,64.5932 147.122,66.5932 146,68.5C 125.716,94.1275 105.382,119.794 85,145.5C 82.833,146.488 80.9997,147.821 79.5,149.5C 77.8333,149.5 76.1667,149.5 74.5,149.5C 98.9162,118.67 123.083,88.3369 147,58.5C 147.21,60.0581 147.71,61.3915 148.5,62.5 Z"/></g>
<g><path style="opacity:1" fill="#9b51e1" d="M 149.5,72.5 C 149.5,77.5 149.5,82.5 149.5,87.5C 148.833,87.5 148.5,87.8333 148.5,88.5C 147.719,86.3719 146.719,86.2053 145.5,88C 133.163,103.958 120.329,120.125 107,136.5C 105.097,138.441 104.264,140.774 104.5,143.5C 104.5,143.833 104.5,144.167 104.5,144.5C 103.209,144.263 102.209,144.596 101.5,145.5C 100.508,145.328 99.8417,145.662 99.5,146.5C 98.209,146.263 97.209,146.596 96.5,147.5C 95.5,147.5 94.5,147.5 93.5,147.5C 92.2613,146.788 91.7613,145.788 92,144.5C 111.441,120.577 130.608,96.5765 149.5,72.5 Z"/></g>
<g><path style="opacity:0.981" fill="#9456ec" d="M 148.5,88.5 C 148.167,91.1667 147.833,93.8333 147.5,96.5C 146.596,97.209 146.263,98.209 146.5,99.5C 145.662,99.8417 145.328,100.508 145.5,101.5C 144.596,102.209 144.263,103.209 144.5,104.5C 143.662,104.842 143.328,105.508 143.5,106.5C 142.662,106.842 142.328,107.508 142.5,108.5C 141.662,108.842 141.328,109.508 141.5,110.5C 140.662,110.842 140.328,111.508 140.5,112.5C 139.833,112.5 139.5,112.833 139.5,113.5C 138.11,114.899 137.11,116.566 136.5,118.5C 135.833,118.5 135.5,118.833 135.5,119.5C 134.662,119.842 134.328,120.508 134.5,121.5C 133.833,121.5 133.5,121.833 133.5,122.5C 132.833,122.5 132.5,122.833 132.5,123.5C 131.833,123.5 131.5,123.833 131.5,124.5C 130.833,124.5 130.5,124.833 130.5,125.5C 128.5,126.833 126.833,128.5 125.5,130.5C 124.833,130.5 124.5,130.833 124.5,131.5C 123.833,131.5 123.5,131.833 123.5,132.5C 122.833,132.5 122.5,132.833 122.5,133.5C 121.833,133.5 121.5,133.833 121.5,134.5C 120.508,134.328 119.842,134.662 119.5,135.5C 118.833,135.5 118.5,135.833 118.5,136.5C 116.566,137.11 114.899,138.11 113.5,139.5C 112.833,139.5 112.5,139.833 112.5,140.5C 111.508,140.328 110.842,140.662 110.5,141.5C 109.508,141.328 108.842,141.662 108.5,142.5C 107.508,142.328 106.842,142.662 106.5,143.5C 105.833,143.5 105.167,143.5 104.5,143.5C 104.264,140.774 105.097,138.441 107,136.5C 120.329,120.125 133.163,103.958 145.5,88C 146.719,86.2053 147.719,86.3719 148.5,88.5 Z"/></g>
<g><path style="opacity:0.02" fill="#e33674" d="M -0.5,93.5 C 0.166667,94.5 0.833333,95.5 1.5,96.5C 1.5,97.5 1.5,98.5 1.5,99.5C 0.833333,98.8333 0.166667,98.1667 -0.5,97.5C -0.5,96.1667 -0.5,94.8333 -0.5,93.5 Z"/></g>
<g><path style="opacity:0.027" fill="#b547c1" d="M 149.5,93.5 C 149.5,94.8333 149.5,96.1667 149.5,97.5C 148.833,98.1667 148.167,98.8333 147.5,99.5C 147.5,98.5 147.5,97.5 147.5,96.5C 148.167,95.5 148.833,94.5 149.5,93.5 Z"/></g>
<g><path style="opacity:1" fill="#b041be" d="M 145.5,49.5 C 145.833,49.5 146.167,49.5 146.5,49.5C 146.263,50.791 146.596,51.791 147.5,52.5C 147.676,55.7273 148.343,58.7273 149.5,61.5C 149.5,61.8333 149.5,62.1667 149.5,62.5C 149.167,62.5 148.833,62.5 148.5,62.5C 147.71,61.3915 147.21,60.0581 147,58.5C 123.083,88.3369 98.9162,118.67 74.5,149.5C 70.5,149.5 66.5,149.5 62.5,149.5C 61.7703,147.955 60.437,147.122 58.5,147C 62.2323,147.188 65.0656,145.688 67,142.5C 76.6667,130.167 86.3333,117.833 96,105.5C 97.5429,103.622 99.3762,102.122 101.5,101C 99.6183,100.802 97.9516,100.302 96.5,99.5C 107.235,99.7489 113.902,94.7489 116.5,84.5C 116.833,84.5 117.167,84.5 117.5,84.5C 117.833,84.5 118.167,84.5 118.5,84.5C 126.639,72.9196 135.639,61.2529 145.5,49.5 Z"/></g>
<g><path style="opacity:0.999" fill="#e1296b" d="M 34.5,91.5 C 37.8358,95.6682 42.1691,98.0015 47.5,98.5C 45.5522,99.1312 43.7189,100.131 42,101.5C 37.9914,107 33.6581,112.333 29,117.5C 26.9715,120.029 25.1381,122.696 23.5,125.5C 23.7093,126.086 24.0426,126.586 24.5,127C 22.1226,126.173 19.7892,125.006 17.5,123.5C 17.1667,123.5 16.8333,123.5 16.5,123.5C 16.5,122.833 16.1667,122.5 15.5,122.5C 15.5,121.833 15.1667,121.5 14.5,121.5C 14.6716,120.508 14.3382,119.842 13.5,119.5C 13.5,118.833 13.1667,118.5 12.5,118.5C 11.8333,116.833 11.1667,115.167 10.5,113.5C 11.3795,110.738 12.5462,108.071 14,105.5C 18.4562,99.3751 23.2895,93.5417 28.5,88C 29.4162,87.6258 30.2496,87.1258 31,86.5C 31.6972,88.5844 32.8639,90.2511 34.5,91.5 Z"/></g>
<g><path style="opacity:0.998" fill="#dd2475" d="M 47.5,98.5 C 50.4824,98.9629 53.4824,99.2962 56.5,99.5C 57.0262,102.808 55.6928,104.974 52.5,106C 52.8333,106.333 53.1667,106.667 53.5,107C 47.1192,114.926 40.6192,122.759 34,130.5C 32.878,132.407 32.0447,134.407 31.5,136.5C 31.1667,136.5 30.8333,136.5 30.5,136.5C 30.5,135.833 30.1667,135.5 29.5,135.5C 29.1583,134.662 28.4916,134.328 27.5,134.5C 27.5,133.833 27.1667,133.5 26.5,133.5C 26.5,132.833 26.1667,132.5 25.5,132.5C 25.5,131.833 25.1667,131.5 24.5,131.5C 24.5,130.833 24.1667,130.5 23.5,130.5C 22.1667,128.5 20.5,126.833 18.5,125.5C 18.5,124.833 18.1667,124.5 17.5,124.5C 17.5,124.167 17.5,123.833 17.5,123.5C 19.7892,125.006 22.1226,126.173 24.5,127C 24.0426,126.586 23.7093,126.086 23.5,125.5C 25.1381,122.696 26.9715,120.029 29,117.5C 33.6581,112.333 37.9914,107 42,101.5C 43.7189,100.131 45.5522,99.1312 47.5,98.5 Z"/></g>
<g><path style="opacity:0.004" fill="#df2980" d="M 1.5,99.5 C 1.83333,99.5 2.16667,99.5 2.5,99.5C 2.32842,100.492 2.66175,101.158 3.5,101.5C 3.5,102.5 3.5,103.5 3.5,104.5C 2.06873,103.22 1.40206,101.553 1.5,99.5 Z"/></g>
<g><path style="opacity:0.004" fill="#c636b0" d="M 146.5,99.5 C 146.833,99.5 147.167,99.5 147.5,99.5C 147.598,101.553 146.931,103.22 145.5,104.5C 145.5,103.5 145.5,102.5 145.5,101.5C 146.338,101.158 146.672,100.492 146.5,99.5 Z"/></g>
<g><path style="opacity:1" fill="#d82680" d="M 56.5,99.5 C 60.4997,99.4592 62.8331,101.459 63.5,105.5C 62.8826,105.389 62.3826,105.056 62,104.5C 53.7544,115.832 44.9211,126.665 35.5,137C 37.6192,137.342 37.9526,138.175 36.5,139.5C 36.1667,139.5 35.8333,139.5 35.5,139.5C 34.205,138.512 32.8717,137.512 31.5,136.5C 32.0447,134.407 32.878,132.407 34,130.5C 40.6192,122.759 47.1192,114.926 53.5,107C 53.1667,106.667 52.8333,106.333 52.5,106C 55.6928,104.974 57.0262,102.808 56.5,99.5 Z"/></g>
<g><path style="opacity:0.012" fill="#b44bb7" d="M 144.5,104.5 C 144.833,104.5 145.167,104.5 145.5,104.5C 145.672,105.492 145.338,106.158 144.5,106.5C 144.5,105.833 144.5,105.167 144.5,104.5 Z"/></g>
<g><path style="opacity:0.012" fill="#cb449a" d="M 3.5,104.5 C 3.83333,104.5 4.16667,104.5 4.5,104.5C 4.5,105.167 4.5,105.833 4.5,106.5C 3.66175,106.158 3.32842,105.492 3.5,104.5 Z"/></g>
<g><path style="opacity:0.996" fill="#a24cd4" d="M 148.5,62.5 C 148.833,62.5 149.167,62.5 149.5,62.5C 149.5,65.8333 149.5,69.1667 149.5,72.5C 130.608,96.5765 111.441,120.577 92,144.5C 91.7613,145.788 92.2613,146.788 93.5,147.5C 91.3736,148.048 89.3736,148.715 87.5,149.5C 84.8333,149.5 82.1667,149.5 79.5,149.5C 80.9997,147.821 82.833,146.488 85,145.5C 105.382,119.794 125.716,94.1275 146,68.5C 147.122,66.5932 147.955,64.5932 148.5,62.5 Z"/></g>
<g><path style="opacity:0.004" fill="#c538ad" d="M 143.5,106.5 C 143.833,106.5 144.167,106.5 144.5,106.5C 144.539,109.089 143.539,111.089 141.5,112.5C 141.5,111.833 141.5,111.167 141.5,110.5C 142.338,110.158 142.672,109.492 142.5,108.5C 143.338,108.158 143.672,107.492 143.5,106.5 Z"/></g>
<g><path style="opacity:0.02" fill="#df2d7e" d="M 4.5,106.5 C 4.83333,106.5 5.16667,106.5 5.5,106.5C 5.32842,107.492 5.66175,108.158 6.5,108.5C 6.32842,109.492 6.66175,110.158 7.5,110.5C 7.32842,111.492 7.66175,112.158 8.5,112.5C 9.16667,112.5 9.5,112.833 9.5,113.5C 9.2252,115.842 8.39186,115.842 7,113.5C 5.58859,111.35 4.75526,109.016 4.5,106.5 Z"/></g>
<g><path style="opacity:0.999" fill="#ce2c8f" d="M 63.5,105.5 C 66.2411,107.975 68.2411,110.975 69.5,114.5C 66.9048,113.868 64.7382,114.868 63,117.5C 57.6667,124.167 52.3333,130.833 47,137.5C 45.9101,139.828 45.4101,142.161 45.5,144.5C 44.609,143.89 43.609,143.557 42.5,143.5C 42.1583,142.662 41.4916,142.328 40.5,142.5C 40.1583,141.662 39.4916,141.328 38.5,141.5C 38.1583,140.662 37.4916,140.328 36.5,140.5C 36.5,140.167 36.5,139.833 36.5,139.5C 37.9526,138.175 37.6192,137.342 35.5,137C 44.9211,126.665 53.7544,115.832 62,104.5C 62.3826,105.056 62.8826,105.389 63.5,105.5 Z"/></g>
<g><path style="opacity:0.004" fill="#c736a9" d="M 140.5,112.5 C 140.833,112.5 141.167,112.5 141.5,112.5C 140.968,115.46 140.301,115.793 139.5,113.5C 140.167,113.5 140.5,113.167 140.5,112.5 Z"/></g>
<g><path style="opacity:1" fill="#c5329d" d="M 69.5,114.5 C 70.9744,115.436 71.9744,116.77 72.5,118.5C 65.8421,127.137 59.1755,135.803 52.5,144.5C 50.9974,145.052 49.3307,145.052 47.5,144.5C 46.8333,144.5 46.1667,144.5 45.5,144.5C 45.4101,142.161 45.9101,139.828 47,137.5C 52.3333,130.833 57.6667,124.167 63,117.5C 64.7382,114.868 66.9048,113.868 69.5,114.5 Z"/></g>
<g><path style="opacity:0.012" fill="#d43b8d" d="M 12.5,118.5 C 13.1667,118.5 13.5,118.833 13.5,119.5C 13.5,120.167 13.5,120.833 13.5,121.5C 11.6182,120.779 11.2848,119.779 12.5,118.5 Z"/></g>
<g><path style="opacity:1" fill="#bc39ac" d="M 96.5,99.5 C 97.9516,100.302 99.6183,100.802 101.5,101C 99.3762,102.122 97.5429,103.622 96,105.5C 86.3333,117.833 76.6667,130.167 67,142.5C 65.0656,145.688 62.2323,147.188 58.5,147C 60.437,147.122 61.7703,147.955 62.5,149.5C 62.1667,149.5 61.8333,149.5 61.5,149.5C 59.5,148.167 57.5,148.167 55.5,149.5C 54.1667,149.5 52.8333,149.5 51.5,149.5C 50.8333,148.833 50.1667,148.167 49.5,147.5C 50.8333,147.167 50.8333,146.833 49.5,146.5C 49.1583,145.662 48.4916,145.328 47.5,145.5C 47.5,145.167 47.5,144.833 47.5,144.5C 49.3307,145.052 50.9974,145.052 52.5,144.5C 59.1755,135.803 65.8421,127.137 72.5,118.5C 74.1439,118.714 75.6439,118.38 77,117.5C 80.8333,111.667 84.6667,105.833 88.5,100C 91.146,99.5026 93.8127,99.3359 96.5,99.5 Z"/></g>
<g><path style="opacity:0.012" fill="#b24bbe" d="M 136.5,118.5 C 137.715,119.779 137.382,120.779 135.5,121.5C 135.5,120.833 135.5,120.167 135.5,119.5C 136.167,119.5 136.5,119.167 136.5,118.5 Z"/></g>
<g><path style="opacity:0.027" fill="#a64ddc" d="M 134.5,121.5 C 134.833,121.5 135.167,121.5 135.5,121.5C 135.315,122.17 134.981,122.17 134.5,121.5 Z"/></g>
<g><path style="opacity:0.004" fill="#e12b7b" d="M 13.5,121.5 C 13.8333,121.5 14.1667,121.5 14.5,121.5C 15.1667,121.5 15.5,121.833 15.5,122.5C 15.5,122.833 15.5,123.167 15.5,123.5C 14.1667,123.5 13.5,122.833 13.5,121.5 Z"/></g>
<g><path style="opacity:0.027" fill="#a64ddc" d="M 133.5,122.5 C 133.833,122.5 134.167,122.5 134.5,122.5C 134.315,123.17 133.981,123.17 133.5,122.5 Z"/></g>
<g><path style="opacity:0.012" fill="#c53fa4" d="M 15.5,123.5 C 15.8333,123.5 16.1667,123.5 16.5,123.5C 16.5,124.167 16.8333,124.5 17.5,124.5C 18.1667,124.5 18.5,124.833 18.5,125.5C 18.631,126.239 18.4643,126.906 18,127.5C 16.5187,126.529 15.6854,125.196 15.5,123.5 Z"/></g>
<g><path style="opacity:0.012" fill="#bf41af" d="M 132.5,123.5 C 132.833,123.5 133.167,123.5 133.5,123.5C 133.315,125.196 132.481,126.529 131,127.5C 130.536,126.906 130.369,126.239 130.5,125.5C 131.167,125.5 131.5,125.167 131.5,124.5C 132.167,124.5 132.5,124.167 132.5,123.5 Z"/></g>
<g><path style="opacity:0.012" fill="#c93d9f" d="M 23.5,130.5 C 24.1667,130.5 24.5,130.833 24.5,131.5C 25.1667,131.5 25.5,131.833 25.5,132.5C 25.5,132.833 25.5,133.167 25.5,133.5C 23.8042,133.315 22.4709,132.481 21.5,131C 22.0944,130.536 22.7611,130.369 23.5,130.5 Z"/></g>
<g><path style="opacity:0.012" fill="#bd43b1" d="M 125.5,130.5 C 126.239,130.369 126.906,130.536 127.5,131C 126.529,132.481 125.196,133.315 123.5,133.5C 123.5,133.167 123.5,132.833 123.5,132.5C 124.167,132.5 124.5,132.167 124.5,131.5C 125.167,131.5 125.5,131.167 125.5,130.5 Z"/></g>
<g><path style="opacity:0.027" fill="#a64ddc" d="M 122.5,133.5 C 122.833,133.5 123.167,133.5 123.5,133.5C 123.315,134.17 122.981,134.17 122.5,133.5 Z"/></g>
<g><path style="opacity:0.004" fill="#e12b7b" d="M 25.5,133.5 C 25.8333,133.5 26.1667,133.5 26.5,133.5C 27.1667,133.5 27.5,133.833 27.5,134.5C 27.5,134.833 27.5,135.167 27.5,135.5C 26.1667,135.5 25.5,134.833 25.5,133.5 Z"/></g>
<g><path style="opacity:0.027" fill="#a64ddc" d="M 121.5,134.5 C 121.833,134.5 122.167,134.5 122.5,134.5C 122.315,135.17 121.981,135.17 121.5,134.5 Z"/></g>
<g><path style="opacity:0.004" fill="#da3387" d="M 27.5,135.5 C 28.1667,135.5 28.8333,135.5 29.5,135.5C 30.1667,135.5 30.5,135.833 30.5,136.5C 29.221,137.715 28.221,137.382 27.5,135.5 Z"/></g>
<g><path style="opacity:0.012" fill="#b24bbe" d="M 119.5,135.5 C 120.167,135.5 120.833,135.5 121.5,135.5C 120.779,137.382 119.779,137.715 118.5,136.5C 119.167,136.5 119.5,136.167 119.5,135.5 Z"/></g>
<g><path style="opacity:0.004" fill="#da3387" d="M 35.5,139.5 C 35.5,140.167 35.8333,140.5 36.5,140.5C 36.5,140.833 36.5,141.167 36.5,141.5C 33.5404,140.968 33.2071,140.301 35.5,139.5 Z"/></g>
<g><path style="opacity:0.004" fill="#c736a9" d="M 113.5,139.5 C 115.793,140.301 115.46,140.968 112.5,141.5C 112.5,141.167 112.5,140.833 112.5,140.5C 113.167,140.5 113.5,140.167 113.5,139.5 Z"/></g>
<g><path style="opacity:0.004" fill="#d82e8b" d="M 36.5,141.5 C 37.1667,141.5 37.8333,141.5 38.5,141.5C 38.8417,142.338 39.5084,142.672 40.5,142.5C 40.8417,143.338 41.5084,143.672 42.5,143.5C 40.0852,144.648 38.0852,143.982 36.5,141.5 Z"/></g>
<g><path style="opacity:0.004" fill="#c538ad" d="M 110.5,141.5 C 111.167,141.5 111.833,141.5 112.5,141.5C 111.089,143.539 109.089,144.539 106.5,144.5C 106.5,144.167 106.5,143.833 106.5,143.5C 107.492,143.672 108.158,143.338 108.5,142.5C 109.492,142.672 110.158,142.338 110.5,141.5 Z"/></g>
<g><path style="opacity:0.012" fill="#b44bb7" d="M 104.5,145.5 C 104.5,145.167 104.5,144.833 104.5,144.5C 105.167,144.5 105.833,144.5 106.5,144.5C 106.158,145.338 105.492,145.672 104.5,145.5 Z"/></g>
<g><path style="opacity:0.004" fill="#d82f8f" d="M 47.5,145.5 C 47.8417,146.338 48.5084,146.672 49.5,146.5C 49.5,146.833 49.5,147.167 49.5,147.5C 47.6916,147.509 46.0249,147.009 44.5,146C 45.448,145.517 46.448,145.351 47.5,145.5 Z"/></g>
<g><path style="opacity:0.004" fill="#c636b0" d="M 101.5,145.5 C 102.5,145.5 103.5,145.5 104.5,145.5C 103.22,146.931 101.553,147.598 99.5,147.5C 99.5,147.167 99.5,146.833 99.5,146.5C 100.492,146.672 101.158,146.338 101.5,145.5 Z"/></g>
<g><path style="opacity:0.027" fill="#b547c1" d="M 96.5,147.5 C 97.5,147.5 98.5,147.5 99.5,147.5C 98.8333,148.167 98.1667,148.833 97.5,149.5C 96.1667,149.5 94.8333,149.5 93.5,149.5C 94.5,148.833 95.5,148.167 96.5,147.5 Z"/></g>
</svg>
