<?xml version="1.0" encoding="UTF-8"?>
<!DOCTYPE svg PUBLIC "-//W3C//DTD SVG 1.1//EN" "http://www.w3.org/Graphics/SVG/1.1/DTD/svg11.dtd">
<svg xmlns="http://www.w3.org/2000/svg" version="1.1" width="512px" height="512px" style="shape-rendering:geometricPrecision; text-rendering:geometricPrecision; image-rendering:optimizeQuality; fill-rule:evenodd; clip-rule:evenodd" xmlns:xlink="http://www.w3.org/1999/xlink">
<g><path style="opacity:0.998" fill="#fcf1e8" d="M 233.5,-0.5 C 248.167,-0.5 262.833,-0.5 277.5,-0.5C 377.769,12.0418 449.269,64.0418 492,155.5C 502.296,180.684 508.796,206.684 511.5,233.5C 511.5,248.167 511.5,262.833 511.5,277.5C 498.958,377.769 446.958,449.269 355.5,492C 330.316,502.296 304.316,508.796 277.5,511.5C 262.833,511.5 248.167,511.5 233.5,511.5C 133.231,498.958 61.7312,446.958 19,355.5C 8.70393,330.316 2.20393,304.316 -0.5,277.5C -0.5,262.833 -0.5,248.167 -0.5,233.5C 12.0418,133.231 64.0418,61.7312 155.5,19C 180.684,8.70393 206.684,2.20393 233.5,-0.5 Z"/></g>
<g><path style="opacity:1" fill="#e67f24" d="M 153.5,167.5 C 186.346,164.721 213.512,175.721 235,200.5C 238.091,205.014 241.425,209.347 245,213.5C 257.852,234.538 270.186,255.872 282,277.5C 289.071,289.469 297.904,299.969 308.5,309C 324.148,320.397 341.481,323.73 360.5,319C 398.51,305.828 414.01,279.328 407,239.5C 393.961,205.383 369.128,190.217 332.5,194C 319.689,196.987 308.689,203.154 299.5,212.5C 292.776,219.623 286.776,227.289 281.5,235.5C 276.464,227.934 271.797,220.101 267.5,212C 296.662,169.837 335.329,157.837 383.5,176C 420.613,196.051 437.446,227.217 434,269.5C 423.586,317.079 394.086,342.746 345.5,346.5C 317.913,345.956 295.08,335.289 277,314.5C 271.177,307.521 265.844,300.188 261,292.5C 249.4,271.243 237.4,250.243 225,229.5C 216.787,216.954 206.287,206.787 193.5,199C 162.282,186.93 135.782,193.43 114,218.5C 97.0763,244.703 97.4096,270.703 115,296.5C 132.707,316.958 154.874,324.458 181.5,319C 195.792,314.372 207.625,306.205 217,294.5C 221.413,288.674 225.58,282.674 229.5,276.5C 234.566,284.241 239.232,292.241 243.5,300.5C 214.6,343.189 175.933,355.689 127.5,338C 85.9337,314.676 69.7671,279.509 79,232.5C 91.6348,196.69 116.468,175.023 153.5,167.5 Z"/></g>
</svg>
