<?xml version="1.0" encoding="iso-8859-1"?>
<!-- Uploaded to: SVG Repo, www.svgrepo.com, Generator: SVG Repo Mixer Tools -->
<svg height="800px" width="800px" version="1.1" id="Layer_1" xmlns="http://www.w3.org/2000/svg" xmlns:xlink="http://www.w3.org/1999/xlink" 
	 viewBox="0 0 512 512" xml:space="preserve">
<path style="fill:#FF7226;" d="M356.767,471.15H198.811c-17.974,0-32.681,14.706-32.681,32.681h223.318
	C389.448,485.856,374.742,471.15,356.767,471.15z"/>
<path style="fill:#B7E8D9;" d="M340.917,176.558l44.45,107.311l53.836,9.684c21.885-44.707,25.197-98.238,4.652-147.847
	L340.917,176.558z"/>
<path style="fill:#D2F0E7;" d="M336.03,44.45c0,0.011-31.221,44.903-31.221,44.903l40.284,97.254l98.761-40.902
	C423.31,96.108,383.112,60.595,336.03,44.45z"/>
<path style="fill:#4BBCD6;" d="M206.318,232.313l-94.585,50.968c20.545,49.598,60.742,85.111,107.824,101.256l31.21-44.914
	L206.318,232.313z"/>
<path style="fill:#127C8D;" d="M250.767,339.622c-12.724,13.366-23.214,28.552-31.21,44.914
	c39.968,13.715,84.845,13.488,126.96-3.952L250.767,339.622z"/>
<g>
	<path style="fill:#9ED9E6;" d="M116.373,135.433c-21.885,44.707-25.197,98.238-4.641,147.847l98.761-40.907l-40.284-97.255
		L116.373,135.433z"/>
	<path style="fill:#9ED9E6;" d="M208.946,48.46c42.114-17.451,87.116-17.725,127.084-4.01
		c-8.007,16.362-18.486,31.537-31.221,44.903C272.456,53.917,236.649,36.989,208.946,48.46z"/>
</g>
<g>
	<path style="fill:#4BBCD6;" d="M439.203,293.553c-18.388,37.594-51.177,69.479-92.692,87.018
		c26.874-12.048,41.024-49.457,38.856-96.702C403.821,284.326,421.97,287.638,439.203,293.553z"/>
	<path style="fill:#4BBCD6;" d="M116.362,135.422c17.244,5.926,35.393,9.238,53.847,9.695l38.743-96.644
		C167.436,66.012,134.761,97.84,116.362,135.422z"/>
	<path style="fill:#4BBCD6;" d="M263.56,208.603l48.563,88.951l73.243-13.686c-1.427-31.428-9.51-67.442-24.554-103.761
		L263.56,208.603z"/>
</g>
<path style="fill:#9ED9E6;" d="M304.81,89.354l-61.471,42.136l24.391,87.178l93.084-38.56
	C345.769,143.778,326.019,112.59,304.81,89.354z"/>
<path style="fill:#127C8D;" d="M385.367,283.869c2.168,47.245-11.982,84.654-38.856,96.702c0.005,0.013-34.387-83.016-34.387-83.016
	C336.079,287.63,361.009,283.248,385.367,283.869z"/>
<path style="fill:#4BBCD6;" d="M243.338,131.491l-73.129,13.628c1.427,31.428,9.51,67.442,24.554,103.772l82.97-34.365
	L243.338,131.491z"/>
<path style="fill:#127C8D;" d="M194.763,248.89c15.044,36.319,34.783,67.496,56.004,90.732l61.358-42.068l-34.392-83.03
	L194.763,248.89z"/>
<path style="fill:#235C6D;" d="M250.775,339.619c31.875,34.94,68.213,51.436,95.736,40.952c0.005,0.013-34.387-83.016-34.387-83.016
	C288.169,307.476,267.56,321.956,250.775,339.619z"/>
<path style="fill:#4BBCD6;" d="M304.81,89.354c-16.776,17.669-37.505,32.201-61.471,42.136l-34.392-83.031
	C236.649,36.989,272.456,53.917,304.81,89.354z"/>
<path style="fill:#127C8D;" d="M208.946,48.46l34.392,83.031c-23.955,9.924-48.771,14.26-73.129,13.628
	C168.041,97.883,182.077,60.511,208.946,48.46z"/>
<g>
	<path style="fill:#3E0412;" d="M400.342,495.66h-3.546c-3.795-18.624-20.3-32.681-40.028-32.681h-70.808v-17.15
		c26.913-0.924,54.113-6.576,80.416-17.471c2.002-0.829,3.593-2.419,4.422-4.422c0.83-2.002,0.83-4.252,0-6.254l-4.169-10.063
		c-1.727-4.169-6.507-6.149-10.675-4.422c-4.169,1.727-6.149,6.507-4.422,10.675l0.983,2.375
		c-21.878,8.113-44.315,12.424-66.556,13.245v-2.582c0-4.512-3.657-8.17-8.17-8.17c-4.513,0-8.17,3.658-8.17,8.17v2.551
		c-81.329-3.216-157.463-52.641-190.601-132.638C34.666,189.751,83.498,66.927,187.965,18.989l0.984,2.375
		c1.727,4.169,6.503,6.149,10.675,4.422c4.169-1.727,6.149-6.507,4.422-10.675l-4.169-10.065c-1.727-4.17-6.506-6.149-10.675-4.422
		C71.277,49.471,15.076,185.151,63.923,303.078c35.74,86.285,117.951,139.523,205.696,142.748v17.153h-70.808
		c-19.728,0-36.233,14.057-40.028,32.681h-3.546c-4.513,0-8.17,3.658-8.17,8.17s3.657,8.17,8.17,8.17h245.105
		c4.513,0,8.17-3.658,8.17-8.17S404.855,495.66,400.342,495.66z M198.811,479.32h157.956c10.651,0,19.733,6.831,23.105,16.34
		H175.706C179.079,486.15,188.16,479.32,198.811,479.32z"/>
	<path style="fill:#3E0412;" d="M446.976,296.046c22.412-46.557,25.707-102.085,4.424-153.465
		c-29.201-70.498-97.374-116.049-173.68-116.049c-24.68,0-48.851,4.829-71.841,14.351c-43.588,18.055-76.782,50.728-96.274,89.997
		c-0.391,0.581-0.72,1.215-0.958,1.907c-0.017,0.051-0.028,0.104-0.045,0.155c-22.41,46.556-25.704,102.082-4.423,153.463
		c29.201,70.498,97.374,116.049,173.68,116.049c24.68,0,48.851-4.828,71.841-14.351c43.589-18.056,76.784-50.729,96.276-89.999
		c0.39-0.58,0.718-1.214,0.955-1.905C446.95,296.147,446.959,296.097,446.976,296.046z M434.759,283.552
		c-13.646-4.084-27.621-6.576-41.662-7.488c-0.754-9.891-2.12-20.147-4.1-30.663c-0.834-4.435-5.111-7.35-9.541-6.518
		c-4.434,0.836-7.352,5.107-6.517,9.541c1.771,9.411,2.997,18.534,3.714,27.297c-20.342,0.466-40.601,4.234-59.981,11.293
		l-28.209-68.101l67.843-28.101c3.418,8.823,6.477,17.76,9.116,26.662c1.282,4.326,5.825,6.794,10.154,5.512
		c4.327-1.282,6.794-5.829,5.512-10.155c-2.799-9.446-6.049-18.923-9.683-28.274l67.841-28.1
		C454.638,199.205,451.921,244.52,434.759,283.552z M205.521,253.27l67.846-28.103l28.209,68.101
		c-18.708,8.717-35.709,20.389-50.43,34.455C233.741,307.219,218.069,281.719,205.521,253.27z M350.057,175.714l-67.846,28.103
		l-28.209-68.101c18.708-8.717,35.709-20.389,50.429-34.455C321.838,121.765,337.511,147.264,350.057,175.714z M178.589,121.967
		c2.135-30.042,11.395-51.657,26.337-62.034l27.721,66.925c-17.622,6.338-36.033,9.7-54.509,10.079
		C178.098,131.83,178.243,126.832,178.589,121.967z M247.743,120.604l-27.721-66.925c17.906-3.228,39.735,5.51,62.488,25.243
		c3.684,3.196,7.322,6.628,10.903,10.265C280.08,101.984,264.685,112.624,247.743,120.604z M238.905,141.963l28.211,68.108
		l-67.846,28.103c-11.244-28.987-18.192-58.096-20.384-84.902C199.239,152.809,219.512,149.026,238.905,141.963z M350.636,369.013
		l-27.706-66.886c17.612-6.333,36.009-9.695,54.474-10.078C377.697,328.506,368.173,356.678,350.636,369.013z M307.836,308.379
		l27.722,66.926c-17.905,3.229-39.735-5.51-62.489-25.244c-3.684-3.196-7.322-6.628-10.903-10.265
		C275.499,327,290.894,316.36,307.836,308.379z M432.979,141.367l-67.824,28.093c-13.45-30.571-30.426-58.015-49.365-80.044
		c9.325-10.619,17.472-22.319,24.252-34.918C380.397,70.162,413.917,100.833,432.979,141.367z M324.271,49.271
		c-5.618,10.035-12.195,19.423-19.616,28.049c-3.756-3.799-7.572-7.388-11.438-10.742c-11.597-10.058-23.177-17.631-34.446-22.642
		c6.271-0.7,12.592-1.064,18.95-1.064C293.747,42.872,309.372,45.097,324.271,49.271z M170.616,80.497
		c-4.413,11.499-7.24,25.024-8.326,40.312c-0.363,5.106-0.523,10.341-0.492,15.683c-11.301-0.849-22.545-2.824-33.571-5.926
		C138.876,111.543,153.17,94.463,170.616,80.497z M120.819,145.438c13.645,4.084,27.621,6.575,41.66,7.487
		c2.185,28.968,9.586,60.376,21.692,91.501l-67.837,28.099C100.942,229.78,103.658,184.468,120.819,145.438z M122.601,287.616
		l67.824-28.093c13.45,30.571,30.426,58.015,49.365,80.044c-9.325,10.619-17.472,22.319-24.251,34.918
		C175.183,358.822,141.662,328.15,122.601,287.616z M231.309,379.713c5.618-10.035,12.195-19.423,19.616-28.049
		c3.756,3.799,7.572,7.388,11.438,10.742c11.604,10.065,23.19,17.629,34.466,22.639c-6.278,0.702-12.605,1.066-18.969,1.066
		C261.832,386.112,246.208,383.886,231.309,379.713z M384.921,348.521c1.657-4.31,3.098-8.905,4.306-13.785
		c3.138-12.672,4.65-26.905,4.553-42.245c11.302,0.849,22.547,2.824,33.574,5.926C416.695,317.457,402.385,334.549,384.921,348.521z
		"/>
</g>
</svg>